<mxfile host="app.diagrams.net" agent="Mozilla/5.0 (Windows NT 10.0; Win64; x64) AppleWebKit/537.36 (KHTML, like Gecko) Chrome/136.0.0.0 Safari/537.36" version="27.0.9">
  <diagram name="Tổng quan hệ thống quản lý chăm sóc thú cưng" id="system-overview">
    <mxGraphModel dx="21050" dy="6263" grid="1" gridSize="10" guides="1" tooltips="1" connect="1" arrows="1" fold="1" page="1" pageScale="1" pageWidth="1600" pageHeight="900" math="0" shadow="0">
      <root>
        <mxCell id="0" />
        <mxCell id="1" parent="0" />
        <mxCell id="actor1" value="User" style="shape=umlActor;verticalLabelPosition=bottom;verticalAlign=top;" parent="1" vertex="1">
          <mxGeometry x="60" y="60" width="40" height="80" as="geometry" />
        </mxCell>
        <mxCell id="actor2" value="Customer" style="shape=umlActor;verticalLabelPosition=bottom;verticalAlign=top;" parent="1" vertex="1">
          <mxGeometry x="60" y="260" width="60" height="80" as="geometry" />
        </mxCell>
        <mxCell id="actor3" value="Doctor" style="shape=umlActor;verticalLabelPosition=bottom;verticalAlign=top;" parent="1" vertex="1">
          <mxGeometry x="60" y="460" width="60" height="80" as="geometry" />
        </mxCell>
        <mxCell id="actor4" value="Admin" style="shape=umlActor;verticalLabelPosition=bottom;verticalAlign=top;" parent="1" vertex="1">
          <mxGeometry x="60" y="660" width="40" height="80" as="geometry" />
        </mxCell>
        <mxCell id="system" value="Hệ thống quản lý chăm sóc thú cưng" style="swimlane;childLayout=stackLayout;horizontal=1;startSize=30;fillColor=#dae8fc;strokeColor=#6c8ebf;" parent="1" vertex="1">
          <mxGeometry x="200" width="1200" height="850" as="geometry" />
        </mxCell>
        <mxCell id="uc1" value="Đăng ký" style="ellipse;whiteSpace=wrap;html=1;aspect=fixed;" parent="system" vertex="1">
          <mxGeometry x="80" y="40" width="120" height="40" as="geometry" />
        </mxCell>
        <mxCell id="uc2" value="Đăng nhập" style="ellipse;whiteSpace=wrap;html=1;aspect=fixed;" parent="system" vertex="1">
          <mxGeometry x="80" y="100" width="120" height="40" as="geometry" />
        </mxCell>
        <mxCell id="uc3" value="Xem dịch vụ" style="ellipse;whiteSpace=wrap;html=1;aspect=fixed;" parent="system" vertex="1">
          <mxGeometry x="80" y="160" width="120" height="40" as="geometry" />
        </mxCell>
        <mxCell id="uc4" value="Xem bài viết" style="ellipse;whiteSpace=wrap;html=1;aspect=fixed;" parent="system" vertex="1">
          <mxGeometry x="80" y="220" width="120" height="40" as="geometry" />
        </mxCell>
        <mxCell id="uc5" value="Tìm kiếm" style="ellipse;whiteSpace=wrap;html=1;aspect=fixed;" parent="system" vertex="1">
          <mxGeometry x="80" y="280" width="120" height="40" as="geometry" />
        </mxCell>
        <mxCell id="uc6" value="Đặt lịch khám" style="ellipse;whiteSpace=wrap;html=1;aspect=fixed;" parent="system" vertex="1">
          <mxGeometry x="320" y="60" width="140" height="40" as="geometry" />
        </mxCell>
        <mxCell id="uc7" value="Xem lịch hẹn" style="ellipse;whiteSpace=wrap;html=1;aspect=fixed;" parent="system" vertex="1">
          <mxGeometry x="320" y="120" width="140" height="40" as="geometry" />
        </mxCell>
        <mxCell id="uc8" value="Quản lý thú cưng" style="ellipse;whiteSpace=wrap;html=1;aspect=fixed;" parent="system" vertex="1">
          <mxGeometry x="320" y="180" width="140" height="40" as="geometry" />
        </mxCell>
        <mxCell id="uc9" value="Bình luận bài viết" style="ellipse;whiteSpace=wrap;html=1;aspect=fixed;" parent="system" vertex="1">
          <mxGeometry x="320" y="240" width="140" height="40" as="geometry" />
        </mxCell>
        <mxCell id="uc10" value="Cập nhật thông tin cá nhân" style="ellipse;whiteSpace=wrap;html=1;aspect=fixed;" parent="system" vertex="1">
          <mxGeometry x="320" y="300" width="180" height="40" as="geometry" />
        </mxCell>
        <mxCell id="uc11" value="Xem lịch hẹn" style="ellipse;whiteSpace=wrap;html=1;aspect=fixed;" parent="system" vertex="1">
          <mxGeometry x="600" y="100" width="140" height="40" as="geometry" />
        </mxCell>
        <mxCell id="uc12" value="Cập nhật trạng thái lịch hẹn" style="ellipse;whiteSpace=wrap;html=1;aspect=fixed;" parent="system" vertex="1">
          <mxGeometry x="600" y="160" width="180" height="40" as="geometry" />
        </mxCell>
        <mxCell id="uc13" value="Xem thông tin thú cưng" style="ellipse;whiteSpace=wrap;html=1;aspect=fixed;" parent="system" vertex="1">
          <mxGeometry x="600" y="220" width="180" height="40" as="geometry" />
        </mxCell>
        <mxCell id="uc14" value="Xem thông tin khách hàng" style="ellipse;whiteSpace=wrap;html=1;aspect=fixed;" parent="system" vertex="1">
          <mxGeometry x="600" y="280" width="180" height="40" as="geometry" />
        </mxCell>
        <mxCell id="uc15" value="Quản lý người dùng" style="ellipse;whiteSpace=wrap;html=1;aspect=fixed;" parent="system" vertex="1">
          <mxGeometry x="900" y="40" width="180" height="40" as="geometry" />
        </mxCell>
        <mxCell id="uc16" value="Quản lý bác sĩ/y tá" style="ellipse;whiteSpace=wrap;html=1;aspect=fixed;" parent="system" vertex="1">
          <mxGeometry x="900" y="100" width="180" height="40" as="geometry" />
        </mxCell>
        <mxCell id="uc17" value="Quản lý thú cưng" style="ellipse;whiteSpace=wrap;html=1;aspect=fixed;" parent="system" vertex="1">
          <mxGeometry x="900" y="160" width="180" height="40" as="geometry" />
        </mxCell>
        <mxCell id="uc18" value="Quản lý lịch hẹn" style="ellipse;whiteSpace=wrap;html=1;aspect=fixed;" parent="system" vertex="1">
          <mxGeometry x="900" y="220" width="180" height="40" as="geometry" />
        </mxCell>
        <mxCell id="uc19" value="Quản lý dịch vụ" style="ellipse;whiteSpace=wrap;html=1;aspect=fixed;" parent="system" vertex="1">
          <mxGeometry x="900" y="280" width="180" height="40" as="geometry" />
        </mxCell>
        <mxCell id="uc20" value="Quản lý bài viết" style="ellipse;whiteSpace=wrap;html=1;aspect=fixed;" parent="system" vertex="1">
          <mxGeometry x="900" y="340" width="180" height="40" as="geometry" />
        </mxCell>
        <mxCell id="uc21" value="Duyệt bình luận" style="ellipse;whiteSpace=wrap;html=1;aspect=fixed;" parent="system" vertex="1">
          <mxGeometry x="900" y="400" width="180" height="40" as="geometry" />
        </mxCell>
        <mxCell id="uc22" value="Thống kê hệ thống" style="ellipse;whiteSpace=wrap;html=1;aspect=fixed;" parent="system" vertex="1">
          <mxGeometry x="900" y="460" width="180" height="40" as="geometry" />
        </mxCell>
        <mxCell id="uc23" value="Cập nhật thông tin cá nhân" style="ellipse;whiteSpace=wrap;html=1;aspect=fixed;" parent="system" vertex="1">
          <mxGeometry x="900" y="520" width="180" height="40" as="geometry" />
        </mxCell>
        <mxCell id="inc1" value="&lt;&lt;include&gt;&gt;" style="dashed=1;html=1;endArrow=none;strokeColor=#0000FF;" parent="system" source="uc6" target="uc3" edge="1" />
        <mxCell id="inc2" value="&lt;&lt;include&gt;&gt;" style="dashed=1;html=1;endArrow=none;strokeColor=#0000FF;" parent="system" source="uc6" target="uc4" edge="1" />
        <mxCell id="ext1" value="&lt;&lt;extend&gt;&gt;" style="dashed=1;html=1;endArrow=none;strokeColor=#FF0000;" parent="system" source="uc20" target="uc21" edge="1" />
        <mxCell id="a1" style="endArrow=none;html=1;" parent="1" source="actor1" target="uc1" edge="1" />
        <mxCell id="a2" style="endArrow=none;html=1;" parent="1" source="actor1" target="uc2" edge="1" />
        <mxCell id="a3" style="endArrow=none;html=1;" parent="1" source="actor1" target="uc3" edge="1" />
        <mxCell id="a4" style="endArrow=none;html=1;" parent="1" source="actor1" target="uc4" edge="1" />
        <mxCell id="a5" style="endArrow=none;html=1;" parent="1" source="actor1" target="uc5" edge="1" />
        <mxCell id="inh1" style="endArrow=block;dashed=1;html=1;" parent="1" source="actor2" target="actor1" edge="1" />
        <mxCell id="a6" style="endArrow=none;html=1;" parent="1" source="actor2" target="uc6" edge="1" />
        <mxCell id="a7" style="endArrow=none;html=1;" parent="1" source="actor2" target="uc7" edge="1" />
        <mxCell id="a8" style="endArrow=none;html=1;" parent="1" source="actor2" target="uc8" edge="1" />
        <mxCell id="a9" style="endArrow=none;html=1;" parent="1" source="actor2" target="uc9" edge="1" />
        <mxCell id="a10" style="endArrow=none;html=1;" parent="1" source="actor2" target="uc10" edge="1" />
        <mxCell id="a11" style="endArrow=none;html=1;" parent="1" source="actor3" target="uc11" edge="1" />
        <mxCell id="a12" style="endArrow=none;html=1;" parent="1" source="actor3" target="uc12" edge="1" />
        <mxCell id="a13" style="endArrow=none;html=1;" parent="1" source="actor3" target="uc13" edge="1" />
        <mxCell id="a14" style="endArrow=none;html=1;" parent="1" source="actor3" target="uc14" edge="1" />
        <mxCell id="a15" style="endArrow=none;html=1;" parent="1" source="actor4" target="uc15" edge="1" />
        <mxCell id="a16" style="endArrow=none;html=1;" parent="1" source="actor4" target="uc16" edge="1" />
        <mxCell id="a17" style="endArrow=none;html=1;" parent="1" source="actor4" target="uc17" edge="1" />
        <mxCell id="a18" style="endArrow=none;html=1;" parent="1" source="actor4" target="uc18" edge="1" />
        <mxCell id="a19" style="endArrow=none;html=1;" parent="1" source="actor4" target="uc19" edge="1" />
        <mxCell id="a20" style="endArrow=none;html=1;" parent="1" source="actor4" target="uc20" edge="1" />
        <mxCell id="a21" style="endArrow=none;html=1;" parent="1" source="actor4" target="uc21" edge="1" />
        <mxCell id="a22" style="endArrow=none;html=1;" parent="1" source="actor4" target="uc22" edge="1" />
        <mxCell id="a23" style="endArrow=none;html=1;" parent="1" source="actor4" target="uc23" edge="1" />
      </root>
    </mxGraphModel>
  </diagram>
</mxfile>
